<svg id="Layer_1" data-name="Layer 1" xmlns="http://www.w3.org/2000/svg" xmlns:xlink="http://www.w3.org/1999/xlink" width="99px" height="29px" viewBox="0 0 224.54 64">
  <defs>
    <linearGradient id="linear-gradient" x1="11.97" y1="-2.69" x2="52.03" y2="66.69" gradientUnits="userSpaceOnUse">
      <stop offset="0" stop-color="#3f8180"/>
      <stop offset="1" stop-color="#39c58b"/>
    </linearGradient>
  </defs>
  <g>
    <g>
      <path d="M86.37,33.31c.7-4.07,3-6.09,7-6A7,7,0,0,1,99,30.2l4.12-3.67A14.24,14.24,0,0,0,98.85,23a12.64,12.64,0,0,0-5.7-1.34A12.3,12.3,0,0,0,84.5,25c-2.09,1.85-3.34,4.64-3.77,8.33Z" style="fill: #f5f5f5"/>
      <path d="M93.36,44.54c-4,.08-6.28-1.91-7-5.93H80.73c.44,3.63,1.69,6.37,3.77,8.18a12.53,12.53,0,0,0,8.65,3.34,12.05,12.05,0,0,0,5.7-1.41,15.2,15.2,0,0,0,4.28-3.4L99,41.65A6.82,6.82,0,0,1,93.36,44.54Z" style="fill: #f5f5f5"/>
    </g>
    <g>
      <rect x="148.53" y="10.8" width="5.59" height="22.51" style="fill: #f5f5f5"/>
      <path d="M154.13,42.64v-4h-5.6v4.46q0,3.66,2.09,5.22a8,8,0,0,0,5,1.52h2.49V44.54h-1.93C154.82,44.54,154.13,43.91,154.13,42.64Z" style="fill: #f5f5f5"/>
    </g>
    <g>
      <path d="M209.84,33.31v-.22a5.44,5.44,0,0,1,1.76-4.42,5.29,5.29,0,0,1,3.67-1.39,5.88,5.88,0,0,1,3.66,1.39L223,23.83A9.33,9.33,0,0,0,209.94,25h-.1V22h-5.6V33.31Z" style="fill: #f5f5f5"/>
      <rect x="204.24" y="38.61" width="5.59" height="11.2" style="fill: #f5f5f5"/>
    </g>
    <g>
      <path d="M181.5,33.31c0-.21,0-.43.05-.65a10.3,10.3,0,0,1,.67-2.73,4.24,4.24,0,0,1,1.69-2,5.66,5.66,0,0,1,3-.67,5.51,5.51,0,0,1,3.13.78,3.89,3.89,0,0,1,1.58,2,10,10,0,0,1,.72,2.73c0,.16,0,.33,0,.49H198V10.8h-5.59V25a16.59,16.59,0,0,0-3.24-2.41,8.91,8.91,0,0,0-4-.88q-5.08.14-7.44,3.64a6.87,6.87,0,0,0-1.53,3.45,28.2,28.2,0,0,0-.41,4.53Z" style="fill: #f5f5f5"/>
      <path d="M192.37,38.61a2.81,2.81,0,0,1,0,.29,9.91,9.91,0,0,1-.72,2.8,3.91,3.91,0,0,1-1.58,2,5.43,5.43,0,0,1-3.13.8,5.12,5.12,0,0,1-3-.75,4.67,4.67,0,0,1-1.69-2,10.39,10.39,0,0,1-.67-2.83c0-.12,0-.25,0-.37h-5.68a27.69,27.69,0,0,0,.41,4.35,7,7,0,0,0,1.53,3.56,9.34,9.34,0,0,0,3.13,2.57,9.15,9.15,0,0,0,4.31,1,9.48,9.48,0,0,0,7.2-3.23v2.91H198V38.61Z" style="fill: #f5f5f5"/>
    </g>
    <g>
      <rect x="162.82" y="10.8" width="5.59" height="5.59" style="fill: #f5f5f5"/>
      <rect x="162.82" y="38.61" width="5.59" height="11.2" style="fill: #f5f5f5"/>
      <rect x="162.82" y="22.04" width="5.59" height="11.27" style="fill: #f5f5f5"/>
    </g>
    <g>
      <rect x="134.41" y="10.8" width="5.59" height="22.51" style="fill: #f5f5f5"/>
      <path d="M140,42.64v-4h-5.59v4.46q0,3.66,2.08,5.22a8,8,0,0,0,5,1.52H144V44.54h-1.92C140.69,44.54,140,43.91,140,42.64Z" style="fill: #f5f5f5"/>
    </g>
    <g>
      <path d="M111.32,33.31a10.34,10.34,0,0,1,.24-1.69,6.37,6.37,0,0,1,1-2.3,5,5,0,0,1,1.87-1.48,6.24,6.24,0,0,1,2.63-.56,6.1,6.1,0,0,1,2.67.56,4.11,4.11,0,0,1,1.82,1.48,5.13,5.13,0,0,1,1.1,2.3,14.09,14.09,0,0,1,.19,1.69h5.6a20.17,20.17,0,0,0-.6-4.15,8.73,8.73,0,0,0-2.36-3.88,9.86,9.86,0,0,0-3.1-2.49,12.13,12.13,0,0,0-5.32-1.1,11.82,11.82,0,0,0-5.22,1.1,10.28,10.28,0,0,0-3.21,2.49,9.62,9.62,0,0,0-2.3,3.88,18,18,0,0,0-.65,4.15Z" style="fill: #f5f5f5"/>
      <path d="M122.87,38.61a12.25,12.25,0,0,1-.18,1.52,5.51,5.51,0,0,1-1.1,2.4A5.22,5.22,0,0,1,119.77,44a5.83,5.83,0,0,1-2.67.59,6,6,0,0,1-2.63-.59,6.77,6.77,0,0,1-1.87-1.42,6.86,6.86,0,0,1-1-2.4,11,11,0,0,1-.23-1.52h-5.6a17.67,17.67,0,0,0,.64,4,10.59,10.59,0,0,0,2.3,4,10.37,10.37,0,0,0,3.21,2.36,10.77,10.77,0,0,0,5.22,1.2,11,11,0,0,0,5.32-1.2,6.14,6.14,0,0,0,1.79-1.15,7.73,7.73,0,0,0,1.31-1.21,9.54,9.54,0,0,0,2.36-4,19.28,19.28,0,0,0,.59-4Z" style="fill: #f5f5f5"/>
    </g>
  </g>
  <g>
    <rect width="64" height="64" rx="10" style="fill: url(#linear-gradient)"/>
    <path d="M40.28,38.28a9.1,9.1,0,1,1,0-12.85,5.1,5.1,0,1,0,7.22-7.21,19.28,19.28,0,1,0,0,27.26,5.1,5.1,0,1,0-7.22-7.2" style="fill: #fdfdff;fill-rule: evenodd"/>
  </g>
</svg>
